<svg xmlns="http://www.w3.org/2000/svg" viewBox="0 0 814.69 814.45"><defs><style>.b4606205-a148-4e5a-a07b-337d1a0416c7{stroke:#000;stroke-miterlimit:10;stroke-width:20px;}</style></defs><g id="e87ca4cf-4880-4274-9157-c5e121fcc9d3" data-name="Capa 2"><g id="bd6def5a-2942-4194-ac6e-ab81efe131eb" data-name="Capa 1"><path class="b4606205-a148-4e5a-a07b-337d1a0416c7" d="M179,407.09c0,126.11,102.41,228.68,228.53,228.68S636.18,533.2,636.18,407.09,533.61,178.56,407.51,178.56,179,281,179,407.09Zm24.38,0A203.91,203.91,0,0,1,407.51,202.94c112.93,0,204.3,91.21,204.3,204.15A204.18,204.18,0,0,1,407.51,611.4c-112.94,0-204.15-91.37-204.15-204.31Z"/><path class="b4606205-a148-4e5a-a07b-337d1a0416c7" d="M406.19,10.08a12.19,12.19,0,0,0-10.8,12.27V130.47a12.19,12.19,0,1,0,24.38,0V22.35a12.2,12.2,0,0,0-13.58-12.27Z"/><path class="b4606205-a148-4e5a-a07b-337d1a0416c7" d="M407.34,671.43a12.19,12.19,0,0,0-11.95,12.44V792a12.19,12.19,0,1,0,24.38,0V683.87a12.2,12.2,0,0,0-12.43-12.44Z"/><path class="b4606205-a148-4e5a-a07b-337d1a0416c7" d="M683,395a12.21,12.21,0,0,0,1.34,24.38h108a12.19,12.19,0,1,0,0-24.38h-108c-.45,0-.89,0-1.34,0Z"/><path class="b4606205-a148-4e5a-a07b-337d1a0416c7" d="M21.61,395a12.2,12.2,0,0,0,1.17,24.38H130.91a12.19,12.19,0,1,0,0-24.38H22.78a11.41,11.41,0,0,0-1.17,0Z"/><path class="b4606205-a148-4e5a-a07b-337d1a0416c7" d="M679.37,122.79a12.2,12.2,0,0,0-8.38,3.75l-76.39,76.4a12.19,12.19,0,1,0,17.18,17.18l76.39-76.4a12.19,12.19,0,0,0-8.84-20.94Z"/><path class="b4606205-a148-4e5a-a07b-337d1a0416c7" d="M211.7,590.46a12.21,12.21,0,0,0-8.38,3.76l-76.4,76.4a12.19,12.19,0,1,0,17.18,17.17l76.39-76.39a12.19,12.19,0,0,0-8.82-20.94Z"/><path class="b4606205-a148-4e5a-a07b-337d1a0416c7" d="M603.14,590.46a12.19,12.19,0,0,0-8.5,20.94L671,687.79a12.18,12.18,0,1,0,17.17-17.17l-76.39-76.4a12.22,12.22,0,0,0-8.67-3.76Z"/><path class="b4606205-a148-4e5a-a07b-337d1a0416c7" d="M134.16,122.79a12.18,12.18,0,0,0-7.37,20.93l76.56,76.4a12.19,12.19,0,1,0,17.17-17.18l-76.39-76.39a12.18,12.18,0,0,0-10-3.76Z"/></g></g></svg>